<svg xmlns="http://www.w3.org/2000/svg" width="16" height="15.5" viewBox="0 0 16 15.5">
  <defs>
    <style>
      .cls-1 {
        fill: #6e6e6e;
        fill-rule: evenodd;
      }
    </style>
  </defs>
  <path id="Star_Icon" data-name="Star Icon" class="cls-1" d="M809.927,449.032a1.151,1.151,0,0,0-.92-0.754l-4.156-.618-1.807-3.751a1.167,1.167,0,0,0-2.088,0l-1.807,3.751-4.157.618a1.15,1.15,0,0,0-.919.754,1.1,1.1,0,0,0,.268,1.141l3.046,3.041-0.706,4.219a1.11,1.11,0,0,0,.473,1.1,1.174,1.174,0,0,0,.664.2,1.191,1.191,0,0,0,.559-0.14L802,456.647l3.624,1.951a1.18,1.18,0,0,0,1.222-.065,1.113,1.113,0,0,0,.474-1.1l-0.707-4.219,3.046-3.041A1.1,1.1,0,0,0,809.927,449.032Zm-4.139,3.4a1.1,1.1,0,0,0-.313.965l0.707,4.219-3.624-1.951a1.182,1.182,0,0,0-1.116,0l-3.624,1.951,0.707-4.219a1.1,1.1,0,0,0-.312-0.965l-3.046-3.041,4.156-.619a1.149,1.149,0,0,0,.87-0.633l1.807-3.75,1.807,3.75a1.149,1.149,0,0,0,.87.633l4.156,0.619Z" transform="translate(-794 -443.25)"/>
</svg>
